<?xml version="1.0" encoding="UTF-8" standalone="no"?><!-- Generator: Gravit.io --><svg xmlns="http://www.w3.org/2000/svg" xmlns:xlink="http://www.w3.org/1999/xlink" style="isolation:isolate" viewBox="0 0 810 450" width="810pt" height="450pt"><defs><clipPath id="_clipPath_yw3fGQId8BkuJlZiuXMHQXJlt0tO7Ld3"><rect width="810" height="450"/></clipPath></defs><g clip-path="url(#_clipPath_yw3fGQId8BkuJlZiuXMHQXJlt0tO7Ld3)"><rect width="810" height="450" style="fill:rgb(0,0,255)"/><path d=" M 306.507 297 Q 376.848 221.398 554.599 173 L 697.763 250 L 516.363 292 L 332.294 81 L 619.512 93 L 779.571 115 L 787.574 321 L 455.006 360 L 663.973 162 L 487.908 122 L 234.48 173 L 388.315 297 L 266.492 393 Q -134.586 310.561 109.1 321 C 352.786 331.439 42.39 379.111 111.768 321 Q 181.146 262.889 226.477 265 L 286.944 321 L 226.477 108 L 294.947 115 L 332.294 81 L 394.54 292 Q 236.166 372.602 306.507 297 Z " fill="rgb(255,153,0)" vector-effect="non-scaling-stroke" stroke-width="1" stroke="rgb(0,0,0)" stroke-linejoin="miter" stroke-linecap="square" stroke-miterlimit="3"/></g></svg>